<svg id="visual" viewBox="0 0 900 600" width="900" height="600" xmlns="http://www.w3.org/2000/svg" xmlns:xlink="http://www.w3.org/1999/xlink" version="1.1"><rect x="0" y="0" width="900" height="600" fill="#00BFFF"></rect><path d="M0 382L21.5 384.2C43 386.3 86 390.7 128.8 388.2C171.7 385.7 214.3 376.3 257.2 369C300 361.7 343 356.3 385.8 356C428.7 355.7 471.3 360.3 514.2 374.7C557 389 600 413 642.8 411.3C685.7 409.7 728.3 382.3 771.2 378.8C814 375.3 857 395.7 878.5 405.8L900 416L900 601L878.5 601C857 601 814 601 771.2 601C728.3 601 685.7 601 642.8 601C600 601 557 601 514.2 601C471.3 601 428.7 601 385.8 601C343 601 300 601 257.2 601C214.3 601 171.7 601 128.8 601C86 601 43 601 21.5 601L0 601Z" fill="#ffc107"></path><path d="M0 428L21.5 436.5C43 445 86 462 128.8 469.5C171.7 477 214.3 475 257.2 473.5C300 472 343 471 385.8 466.3C428.7 461.7 471.3 453.3 514.2 447.5C557 441.7 600 438.3 642.8 440.2C685.7 442 728.3 449 771.2 444C814 439 857 422 878.5 413.5L900 405L900 601L878.5 601C857 601 814 601 771.2 601C728.3 601 685.7 601 642.8 601C600 601 557 601 514.2 601C471.3 601 428.7 601 385.8 601C343 601 300 601 257.2 601C214.3 601 171.7 601 128.8 601C86 601 43 601 21.5 601L0 601Z" fill="#ff9c18"></path><path d="M0 489L21.5 484.8C43 480.7 86 472.3 128.8 466.8C171.7 461.3 214.3 458.7 257.2 457C300 455.3 343 454.7 385.8 460.8C428.7 467 471.3 480 514.2 483.8C557 487.7 600 482.3 642.8 473C685.7 463.7 728.3 450.3 771.2 447.3C814 444.3 857 451.7 878.5 455.3L900 459L900 601L878.5 601C857 601 814 601 771.2 601C728.3 601 685.7 601 642.8 601C600 601 557 601 514.2 601C471.3 601 428.7 601 385.8 601C343 601 300 601 257.2 601C214.3 601 171.7 601 128.8 601C86 601 43 601 21.5 601L0 601Z" fill="#ff762d"></path><path d="M0 529L21.5 530.3C43 531.7 86 534.3 128.8 530.2C171.7 526 214.3 515 257.2 506.5C300 498 343 492 385.8 493.2C428.7 494.3 471.3 502.7 514.2 502.3C557 502 600 493 642.8 488C685.7 483 728.3 482 771.2 486.5C814 491 857 501 878.5 506L900 511L900 601L878.5 601C857 601 814 601 771.2 601C728.3 601 685.7 601 642.8 601C600 601 557 601 514.2 601C471.3 601 428.7 601 385.8 601C343 601 300 601 257.2 601C214.3 601 171.7 601 128.8 601C86 601 43 601 21.5 601L0 601Z" fill="#fe4e42"></path><path d="M0 548L21.5 546.5C43 545 86 542 128.8 544C171.7 546 214.3 553 257.2 558.2C300 563.3 343 566.7 385.8 565.5C428.7 564.3 471.3 558.7 514.2 555.7C557 552.7 600 552.3 642.8 547.7C685.7 543 728.3 534 771.2 531C814 528 857 531 878.5 532.5L900 534L900 601L878.5 601C857 601 814 601 771.2 601C728.3 601 685.7 601 642.8 601C600 601 557 601 514.2 601C471.3 601 428.7 601 385.8 601C343 601 300 601 257.2 601C214.3 601 171.7 601 128.8 601C86 601 43 601 21.5 601L0 601Z" fill="#f41558"></path></svg>