<svg id="visual" viewBox="0 0 900 600" width="900" height="600" xmlns="http://www.w3.org/2000/svg" xmlns:xlink="http://www.w3.org/1999/xlink" version="1.1"><rect x="0" y="0" width="900" height="600" fill="#F4F3F1"></rect><path d="M0 521L21.5 517C43 513 86 505 128.8 496.7C171.7 488.3 214.3 479.7 257.2 460.5C300 441.3 343 411.7 385.8 406.5C428.7 401.3 471.3 420.7 514.2 426C557 431.3 600 422.7 642.8 414.5C685.7 406.3 728.3 398.7 771.2 409C814 419.3 857 447.7 878.5 461.8L900 476L900 601L878.5 601C857 601 814 601 771.2 601C728.3 601 685.7 601 642.8 601C600 601 557 601 514.2 601C471.3 601 428.7 601 385.8 601C343 601 300 601 257.2 601C214.3 601 171.7 601 128.8 601C86 601 43 601 21.5 601L0 601Z" fill="#81A979" stroke-linecap="round" stroke-linejoin="miter"></path></svg>